<mxfile host="Electron" modified="2024-05-22T21:09:06.417Z" agent="Mozilla/5.0 (Macintosh; Intel Mac OS X 10_15_7) AppleWebKit/537.36 (KHTML, like Gecko) draw.io/24.4.0 Chrome/120.0.6099.109 Electron/28.1.0 Safari/537.36" etag="RZxlcAUnaAdoRbseJGez" version="24.4.0" type="device">
  <diagram name="Seite-1" id="xITzAWoCHMejRdA5lkqf">
    <mxGraphModel dx="1154" dy="793" grid="1" gridSize="10" guides="1" tooltips="1" connect="1" arrows="1" fold="1" page="1" pageScale="1" pageWidth="827" pageHeight="1169" math="0" shadow="0">
      <root>
        <mxCell id="0" />
        <mxCell id="1" parent="0" />
        <mxCell id="TeYwSJDQJ6puLv1XYmJL-1" value="&lt;div&gt;Bookings&lt;/div&gt;" style="rounded=0;whiteSpace=wrap;html=1;" parent="1" vertex="1">
          <mxGeometry x="150" y="50" width="120" height="60" as="geometry" />
        </mxCell>
        <mxCell id="TeYwSJDQJ6puLv1XYmJL-2" value="" style="endArrow=classic;html=1;rounded=0;exitX=0.5;exitY=1;exitDx=0;exitDy=0;" parent="1" source="TeYwSJDQJ6puLv1XYmJL-1" target="TeYwSJDQJ6puLv1XYmJL-3" edge="1">
          <mxGeometry width="50" height="50" relative="1" as="geometry">
            <mxPoint x="390" y="390" as="sourcePoint" />
            <mxPoint x="400" y="160" as="targetPoint" />
          </mxGeometry>
        </mxCell>
        <mxCell id="TeYwSJDQJ6puLv1XYmJL-3" value="Filter out timestamps" style="rounded=0;whiteSpace=wrap;html=1;" parent="1" vertex="1">
          <mxGeometry x="150" y="140" width="120" height="60" as="geometry" />
        </mxCell>
        <mxCell id="TeYwSJDQJ6puLv1XYmJL-4" value="Translate to anonymize customers" style="rounded=0;whiteSpace=wrap;html=1;" parent="1" vertex="1">
          <mxGeometry x="153" y="240" width="120" height="60" as="geometry" />
        </mxCell>
        <mxCell id="TeYwSJDQJ6puLv1XYmJL-5" value="" style="endArrow=classic;html=1;rounded=0;exitX=0.5;exitY=1;exitDx=0;exitDy=0;entryX=0.5;entryY=0;entryDx=0;entryDy=0;" parent="1" target="TeYwSJDQJ6puLv1XYmJL-4" edge="1">
          <mxGeometry width="50" height="50" relative="1" as="geometry">
            <mxPoint x="213" y="200" as="sourcePoint" />
            <mxPoint x="253" y="340" as="targetPoint" />
          </mxGeometry>
        </mxCell>
        <mxCell id="TeYwSJDQJ6puLv1XYmJL-6" value="" style="endArrow=classic;html=1;rounded=0;entryX=0.5;entryY=0;entryDx=0;entryDy=0;" parent="1" source="TeYwSJDQJ6puLv1XYmJL-4" target="TeYwSJDQJ6puLv1XYmJL-19" edge="1">
          <mxGeometry width="50" height="50" relative="1" as="geometry">
            <mxPoint x="213" y="350" as="sourcePoint" />
            <mxPoint x="213" y="360" as="targetPoint" />
          </mxGeometry>
        </mxCell>
        <mxCell id="TeYwSJDQJ6puLv1XYmJL-7" value="" style="endArrow=classic;html=1;rounded=0;edgeStyle=orthogonalEdgeStyle;" parent="1" target="TeYwSJDQJ6puLv1XYmJL-8" edge="1">
          <mxGeometry width="50" height="50" relative="1" as="geometry">
            <mxPoint x="213" y="440" as="sourcePoint" />
            <mxPoint x="283" y="470" as="targetPoint" />
            <Array as="points">
              <mxPoint x="353" y="440" />
            </Array>
          </mxGeometry>
        </mxCell>
        <mxCell id="TeYwSJDQJ6puLv1XYmJL-8" value="Bookings ZÃ¼rich" style="rounded=0;whiteSpace=wrap;html=1;" parent="1" vertex="1">
          <mxGeometry x="293" y="470" width="120" height="60" as="geometry" />
        </mxCell>
        <mxCell id="TeYwSJDQJ6puLv1XYmJL-9" value="Bookings Bern" style="rounded=0;whiteSpace=wrap;html=1;" parent="1" vertex="1">
          <mxGeometry x="153" y="470" width="120" height="60" as="geometry" />
        </mxCell>
        <mxCell id="TeYwSJDQJ6puLv1XYmJL-10" value="Bookings St. Gallen" style="rounded=0;whiteSpace=wrap;html=1;" parent="1" vertex="1">
          <mxGeometry x="13" y="470" width="120" height="60" as="geometry" />
        </mxCell>
        <mxCell id="TeYwSJDQJ6puLv1XYmJL-11" value="" style="endArrow=classic;html=1;rounded=0;entryX=0.467;entryY=-0.028;entryDx=0;entryDy=0;entryPerimeter=0;edgeStyle=orthogonalEdgeStyle;" parent="1" target="TeYwSJDQJ6puLv1XYmJL-10" edge="1">
          <mxGeometry width="50" height="50" relative="1" as="geometry">
            <mxPoint x="213" y="440" as="sourcePoint" />
            <mxPoint x="243" y="440" as="targetPoint" />
          </mxGeometry>
        </mxCell>
        <mxCell id="TeYwSJDQJ6puLv1XYmJL-12" value="Actual session stats" style="rounded=0;whiteSpace=wrap;html=1;" parent="1" vertex="1">
          <mxGeometry x="13" y="560" width="120" height="60" as="geometry" />
        </mxCell>
        <mxCell id="TeYwSJDQJ6puLv1XYmJL-13" value="Actual session stats" style="rounded=0;whiteSpace=wrap;html=1;" parent="1" vertex="1">
          <mxGeometry x="153" y="560" width="120" height="60" as="geometry" />
        </mxCell>
        <mxCell id="TeYwSJDQJ6puLv1XYmJL-14" value="Actual session stats" style="rounded=0;whiteSpace=wrap;html=1;" parent="1" vertex="1">
          <mxGeometry x="293" y="560" width="120" height="60" as="geometry" />
        </mxCell>
        <mxCell id="TeYwSJDQJ6puLv1XYmJL-15" value="" style="endArrow=classic;html=1;rounded=0;exitX=0.5;exitY=1;exitDx=0;exitDy=0;" parent="1" source="TeYwSJDQJ6puLv1XYmJL-10" target="TeYwSJDQJ6puLv1XYmJL-12" edge="1">
          <mxGeometry width="50" height="50" relative="1" as="geometry">
            <mxPoint x="223" y="420" as="sourcePoint" />
            <mxPoint x="273" y="370" as="targetPoint" />
          </mxGeometry>
        </mxCell>
        <mxCell id="TeYwSJDQJ6puLv1XYmJL-16" value="" style="endArrow=classic;html=1;rounded=0;exitX=0.5;exitY=1;exitDx=0;exitDy=0;entryX=0.5;entryY=0;entryDx=0;entryDy=0;" parent="1" source="TeYwSJDQJ6puLv1XYmJL-9" target="TeYwSJDQJ6puLv1XYmJL-13" edge="1">
          <mxGeometry width="50" height="50" relative="1" as="geometry">
            <mxPoint x="223" y="420" as="sourcePoint" />
            <mxPoint x="273" y="370" as="targetPoint" />
          </mxGeometry>
        </mxCell>
        <mxCell id="TeYwSJDQJ6puLv1XYmJL-17" value="" style="endArrow=classic;html=1;rounded=0;exitX=0.5;exitY=1;exitDx=0;exitDy=0;" parent="1" source="TeYwSJDQJ6puLv1XYmJL-8" target="TeYwSJDQJ6puLv1XYmJL-14" edge="1">
          <mxGeometry width="50" height="50" relative="1" as="geometry">
            <mxPoint x="223" y="420" as="sourcePoint" />
            <mxPoint x="273" y="370" as="targetPoint" />
          </mxGeometry>
        </mxCell>
        <mxCell id="TeYwSJDQJ6puLv1XYmJL-18" value="SessionInfos" style="rounded=0;whiteSpace=wrap;html=1;" parent="1" vertex="1">
          <mxGeometry x="440" y="170" width="120" height="60" as="geometry" />
        </mxCell>
        <mxCell id="TeYwSJDQJ6puLv1XYmJL-19" value="Enrich with join" style="rounded=0;whiteSpace=wrap;html=1;" parent="1" vertex="1">
          <mxGeometry x="153" y="350" width="120" height="60" as="geometry" />
        </mxCell>
        <mxCell id="TeYwSJDQJ6puLv1XYmJL-20" value="" style="endArrow=classic;html=1;rounded=0;entryX=1;entryY=0.5;entryDx=0;entryDy=0;exitX=0.5;exitY=1;exitDx=0;exitDy=0;edgeStyle=orthogonalEdgeStyle;" parent="1" source="TeYwSJDQJ6puLv1XYmJL-18" target="TeYwSJDQJ6puLv1XYmJL-19" edge="1">
          <mxGeometry width="50" height="50" relative="1" as="geometry">
            <mxPoint x="410" y="340" as="sourcePoint" />
            <mxPoint x="460" y="290" as="targetPoint" />
          </mxGeometry>
        </mxCell>
        <mxCell id="TeYwSJDQJ6puLv1XYmJL-21" value="" style="endArrow=classic;html=1;rounded=0;exitX=0.5;exitY=1;exitDx=0;exitDy=0;entryX=0.5;entryY=0;entryDx=0;entryDy=0;" parent="1" source="TeYwSJDQJ6puLv1XYmJL-19" target="TeYwSJDQJ6puLv1XYmJL-9" edge="1">
          <mxGeometry width="50" height="50" relative="1" as="geometry">
            <mxPoint x="410" y="340" as="sourcePoint" />
            <mxPoint x="213" y="440" as="targetPoint" />
          </mxGeometry>
        </mxCell>
      </root>
    </mxGraphModel>
  </diagram>
</mxfile>
